<svg xmlns="http://www.w3.org/2000/svg" width="133.366" height="91.881" viewBox="0 0 133.366 91.881">
  <g id="Сгруппировать_6988" data-name="Сгруппировать 6988" transform="translate(-95.045 -90.874)">
    <path id="Контур_1" data-name="Контур 1" d="M100.3,336.708h3.977a5.341,5.341,0,0,1,1.632.235,3.755,3.755,0,0,1,1.26.668,2.9,2.9,0,0,1,.8,1.055,3.4,3.4,0,0,1,.281,1.412v.03a3.135,3.135,0,0,1-1.237,2.6,3.93,3.93,0,0,1-1.328.66,5.753,5.753,0,0,1-1.609.22H101.5v3.75h-1.2Zm3.833,5.8a4.021,4.021,0,0,0,1.2-.167,2.788,2.788,0,0,0,.928-.48,2.123,2.123,0,0,0,.594-.739,2.18,2.18,0,0,0,.206-.96v-.03a2.024,2.024,0,0,0-.784-1.729,3.389,3.389,0,0,0-2.078-.586H101.5v4.691Z" transform="translate(-3.521 -164.762)"/>
    <path id="Контур_2" data-name="Контур 2" d="M133.351,336.707h4.569a5.077,5.077,0,0,1,1.754.281,3.422,3.422,0,0,1,1.268.782,2.728,2.728,0,0,1,.607.926,3.11,3.11,0,0,1,.212,1.169v.03a3.14,3.14,0,0,1-.212,1.192,2.708,2.708,0,0,1-.6.91,3.226,3.226,0,0,1-.918.638,4.455,4.455,0,0,1-1.154.357l3.264,4.342h-1.472l-3.082-4.129H134.55v4.129h-1.2Zm4.472,5.42a3.752,3.752,0,0,0,1.1-.152,2.678,2.678,0,0,0,.868-.432,1.943,1.943,0,0,0,.776-1.6v-.031a1.84,1.84,0,0,0-.716-1.541,3.211,3.211,0,0,0-2.009-.554H134.55v4.311Z" transform="translate(-25.673 -164.761)"/>
    <path id="Контур_3" data-name="Контур 3" d="M172.911,347.147a5.392,5.392,0,0,1-2.209-.44,5.23,5.23,0,0,1-2.808-2.937,5.706,5.706,0,0,1-.387-2.087v-.03a5.664,5.664,0,0,1,.394-2.1,5.51,5.51,0,0,1,7.249-2.96,5.228,5.228,0,0,1,2.808,2.937,5.7,5.7,0,0,1,.387,2.088.02.02,0,0,1,0,.031,5.665,5.665,0,0,1-.395,2.095,5.319,5.319,0,0,1-5.04,3.4m.03-1.108a4.073,4.073,0,0,0,1.678-.342,3.955,3.955,0,0,0,1.313-.934,4.384,4.384,0,0,0,.857-1.382,4.591,4.591,0,0,0,.311-1.7v-.03a4.653,4.653,0,0,0-.311-1.708,4.183,4.183,0,0,0-2.2-2.33,4,4,0,0,0-1.678-.349,4.074,4.074,0,0,0-1.678.342,3.952,3.952,0,0,0-1.313.934,4.378,4.378,0,0,0-.858,1.381,4.587,4.587,0,0,0-.311,1.7v.031a4.65,4.65,0,0,0,.311,1.708,4.181,4.181,0,0,0,2.2,2.33,3.992,3.992,0,0,0,1.677.35" transform="translate(-48.565 -164.392)"/>
    <path id="Контур_4" data-name="Контур 4" d="M210.363,336.708H218v1.108h-6.437v3.811h5.753V342.7h-5.753v4.63h-1.2Z" transform="translate(-77.287 -164.762)"/>
    <path id="Контур_5" data-name="Контур 5" d="M242.862,336.708h7.682v1.078h-6.482v3.659h5.8v1.078h-5.8v3.735h6.558v1.078h-7.758Z" transform="translate(-99.069 -164.762)"/>
    <path id="Контур_6" data-name="Контур 6" d="M278.276,347.177a6.272,6.272,0,0,1-2.33-.418,6.638,6.638,0,0,1-2.012-1.282l.744-.881a6.247,6.247,0,0,0,1.686,1.131,4.843,4.843,0,0,0,1.958.372,2.7,2.7,0,0,0,1.723-.509,1.58,1.58,0,0,0,.645-1.3v-.03a1.729,1.729,0,0,0-.121-.661,1.367,1.367,0,0,0-.426-.539,3.056,3.056,0,0,0-.845-.44,10.889,10.889,0,0,0-1.378-.379,10.973,10.973,0,0,1-1.59-.456,3.945,3.945,0,0,1-1.119-.622,2.277,2.277,0,0,1-.654-.85,2.81,2.81,0,0,1-.213-1.138v-.031a2.608,2.608,0,0,1,.258-1.154,2.721,2.721,0,0,1,.729-.918,3.567,3.567,0,0,1,1.109-.607,4.251,4.251,0,0,1,1.4-.22,5.82,5.82,0,0,1,2.042.327,6.219,6.219,0,0,1,1.693.979l-.7.926a5.2,5.2,0,0,0-1.5-.881,4.555,4.555,0,0,0-1.571-.273,2.551,2.551,0,0,0-1.655.493,1.517,1.517,0,0,0-.607,1.222v.03a1.756,1.756,0,0,0,.122.675,1.369,1.369,0,0,0,.44.546,3.225,3.225,0,0,0,.88.456,10.627,10.627,0,0,0,1.442.387,6.268,6.268,0,0,1,2.619,1.093,2.352,2.352,0,0,1,.843,1.913v.03a2.787,2.787,0,0,1-.27,1.237,2.834,2.834,0,0,1-.744.949,3.336,3.336,0,0,1-1.141.607,4.788,4.788,0,0,1-1.457.213" transform="translate(-119.894 -164.453)"/>
    <path id="Контур_7" data-name="Контур 7" d="M310.039,347.177a6.276,6.276,0,0,1-2.33-.418,6.641,6.641,0,0,1-2.011-1.282l.744-.881a6.251,6.251,0,0,0,1.685,1.131,4.845,4.845,0,0,0,1.959.372,2.7,2.7,0,0,0,1.723-.509,1.581,1.581,0,0,0,.645-1.3v-.03a1.717,1.717,0,0,0-.122-.661,1.365,1.365,0,0,0-.426-.539,3.047,3.047,0,0,0-.844-.44,10.854,10.854,0,0,0-1.378-.379,10.959,10.959,0,0,1-1.59-.456,3.942,3.942,0,0,1-1.119-.622,2.283,2.283,0,0,1-.654-.85,2.81,2.81,0,0,1-.213-1.138v-.031a2.6,2.6,0,0,1,.259-1.154,2.712,2.712,0,0,1,.729-.918,3.559,3.559,0,0,1,1.108-.607,4.254,4.254,0,0,1,1.4-.22,5.822,5.822,0,0,1,2.042.327,6.233,6.233,0,0,1,1.692.979l-.7.926a5.192,5.192,0,0,0-1.495-.881,4.558,4.558,0,0,0-1.571-.273,2.549,2.549,0,0,0-1.655.493,1.516,1.516,0,0,0-.607,1.222v.03a1.768,1.768,0,0,0,.121.675,1.371,1.371,0,0,0,.44.546,3.223,3.223,0,0,0,.881.456,10.631,10.631,0,0,0,1.442.387,6.27,6.27,0,0,1,2.619,1.093,2.351,2.351,0,0,1,.843,1.913v.03a2.783,2.783,0,0,1-.27,1.237,2.841,2.841,0,0,1-.743.949,3.343,3.343,0,0,1-1.142.607,4.785,4.785,0,0,1-1.458.213" transform="translate(-141.182 -164.453)"/>
    <rect id="Прямоугольник_2" data-name="Прямоугольник 2" width="1.199" height="10.627" transform="translate(175.78 171.946)"/>
    <path id="Контур_8" data-name="Контур 8" d="M359.205,347.147a5.391,5.391,0,0,1-2.209-.44,5.228,5.228,0,0,1-2.808-2.937,5.7,5.7,0,0,1-.387-2.087v-.03a5.657,5.657,0,0,1,.395-2.1,5.51,5.51,0,0,1,7.249-2.96,5.227,5.227,0,0,1,2.809,2.937,5.71,5.71,0,0,1,.387,2.088.02.02,0,0,1,0,.031,5.665,5.665,0,0,1-.4,2.095,5.318,5.318,0,0,1-5.04,3.4m.031-1.108a4.072,4.072,0,0,0,1.677-.342,3.954,3.954,0,0,0,1.314-.934,4.384,4.384,0,0,0,.857-1.382,4.591,4.591,0,0,0,.311-1.7v-.03a4.653,4.653,0,0,0-.311-1.708,4.183,4.183,0,0,0-2.2-2.33,4,4,0,0,0-1.678-.349,4.073,4.073,0,0,0-1.677.342,3.96,3.96,0,0,0-1.313.934,4.39,4.39,0,0,0-.858,1.381,4.6,4.6,0,0,0-.311,1.7v.031a4.663,4.663,0,0,0,.311,1.708,4.181,4.181,0,0,0,2.2,2.33,3.993,3.993,0,0,0,1.678.35" transform="translate(-173.422 -164.392)"/>
    <path id="Контур_9" data-name="Контур 9" d="M396.657,336.708h1.123l6.695,8.516v-8.516h1.169v10.627h-.956l-6.862-8.714v8.714h-1.169Z" transform="translate(-202.145 -164.762)"/>
    <path id="Контур_10" data-name="Контур 10" d="M437.4,336.478h1.124l4.843,10.7h-1.29l-1.245-2.808h-5.784l-1.26,2.808h-1.23Zm2.961,6.816-2.414-5.42-2.429,5.42Z" transform="translate(-226.209 -164.607)"/>
    <path id="Контур_11" data-name="Контур 11" d="M473.992,336.708h1.2v9.518h5.981v1.109h-7.181Z" transform="translate(-253.976 -164.762)"/>
    <rect id="Прямоугольник_3" data-name="Прямоугольник 3" width="4.598" height="17.646" transform="translate(96.183 91.245)"/>
    <path id="Контур_12" data-name="Контур 12" d="M122.171,92h6.77l3.041,11.765h.048L135.071,92h6.771v17.646h-4.326V96.249h-.05l-3.705,13.395h-3.51l-3.708-13.395h-.049v13.395h-4.324Z" transform="translate(-18.18 -0.754)"/>
    <path id="Контур_13" data-name="Контур 13" d="M191.541,92h6.771l3.041,11.765h.049L204.442,92h6.771v17.646h-4.325V96.249h-.05l-3.706,13.395h-3.51l-3.708-13.395h-.048v13.395h-4.325Z" transform="translate(-64.673 -0.754)"/>
    <path id="Контур_14" data-name="Контур 14" d="M275.831,102.353c0,5.117-2.347,7.662-7.684,7.662s-7.687-2.545-7.687-7.662V92h4.6v10.627c0,2.274.842,3.435,3.09,3.435s3.089-1.161,3.089-3.435V92h4.595Z" transform="translate(-110.863 -0.753)"/>
    <path id="Контур_15" data-name="Контур 15" d="M316.2,92h4.721l6.129,10.873h.05V92h4.324v17.646H326.7l-6.128-11h-.049v11H316.2Z" transform="translate(-148.22 -0.754)"/>
    <path id="Контур_16" data-name="Контур 16" d="M378.536,105.307c2.966,0,4.1-2.62,4.1-5.239s-1.137-5.24-4.1-5.24-4.1,2.619-4.1,5.24,1.137,5.239,4.1,5.239m0-14.433c5.561,0,8.7,4.077,8.7,9.194s-3.139,9.193-8.7,9.193-8.7-4.077-8.7-9.193,3.138-9.194,8.7-9.194" transform="translate(-184.169 0)"/>
    <path id="Контур_17" data-name="Контур 17" d="M96.193,174.8h3.251l14.408,20.018L128.579,174.8h3.187L115.7,196.92l16.958,23.4h-3.379l-15.426-21.293L98.361,220.318H95.045l17.085-23.4Z" transform="translate(0 -56.249)"/>
    <rect id="Прямоугольник_4" data-name="Прямоугольник 4" width="2.804" height="45.519" transform="translate(135.591 118.551)"/>
    <path id="Контур_18" data-name="Контур 18" d="M265.9,217.893a21.711,21.711,0,0,0,6.406-.988,15.543,15.543,0,0,0,5.832-3.315,16.8,16.8,0,0,0,4.241-6.247A25.853,25.853,0,0,0,284,197.494a29.994,29.994,0,0,0-.926-7.969,19.654,19.654,0,0,0-2.421-5.579,12.613,12.613,0,0,0-3.443-3.57,16.941,16.941,0,0,0-4.017-2.008,19.479,19.479,0,0,0-4.144-.924,35.144,35.144,0,0,0-3.728-.223H253.658v40.672Zm-15.046-43.1h14.918a23.789,23.789,0,0,1,10.167,1.912,17.15,17.15,0,0,1,6.47,5.1,19.407,19.407,0,0,1,3.41,7.268,35.6,35.6,0,0,1,.989,8.416,31.456,31.456,0,0,1-1.243,9.02,19.589,19.589,0,0,1-3.857,7.235,18.1,18.1,0,0,1-6.6,4.812,23.371,23.371,0,0,1-9.467,1.755H250.853Z" transform="translate(-104.425 -56.247)"/>
    <rect id="Прямоугольник_5" data-name="Прямоугольник 5" width="2.804" height="45.519" transform="translate(188.95 118.551)"/>
    <path id="Контур_19" data-name="Контур 19" d="M412.653,174.8h2.8v43.095h25.819v2.423H412.653Z" transform="translate(-212.865 -56.249)"/>
  </g>
</svg>
