<svg xmlns="http://www.w3.org/2000/svg" width="332.468" height="84.9" viewBox="0 0 332.468 84.9">
  <g id="Сгруппировать_715" data-name="Сгруппировать 715" transform="translate(-5128.323 -2960.19)">
    <text id="HAIR_ANALYSIS" data-name="HAIR ANALYSIS" transform="translate(5128.323 3039.09)" fill="#fff" font-size="18" font-family="Poppins-Light, Poppins" font-weight="300"><tspan x="0" y="0">HAIR ANALYSIS</tspan></text>
    <g id="Сгруппировать_12" data-name="Сгруппировать 12" transform="translate(5128.502 2962.395)">
      <path id="Контур_12" data-name="Контур 12" d="M-2.29-6.075A13.524,13.524,0,0,1-15.8-19.595,13.519,13.519,0,0,1-2.29-33.111a13.521,13.521,0,0,1,13.52,13.516A13.526,13.526,0,0,1-2.29-6.075M10.568-31.588A17.564,17.564,0,0,0-2.29-37.176,17.585,17.585,0,0,0-19.872-19.595,17.582,17.582,0,0,0-2.29-2.013,17.579,17.579,0,0,0,15.291-19.595V-52.726H10.568Z" transform="translate(19.872 52.726)" fill="#fff"/>
    </g>
    <g id="Сгруппировать_13" data-name="Сгруппировать 13" transform="translate(5167.772 2976.56)">
      <path id="Контур_13" data-name="Контур 13" d="M-.613-2.212A13.249,13.249,0,0,1,12.94-15.15a13.207,13.207,0,0,1,9.387,4.235L.778,4A13.263,13.263,0,0,1-.613-2.212M25.493.521A12.68,12.68,0,0,1,12.525,12.892,12.642,12.642,0,0,1,3.28,8.537l-.864-1.1L28.345-10.516A18.146,18.146,0,0,0,13.273-19.19,18.17,18.17,0,0,0-5.319-1.447,18.128,18.128,0,0,0-1.491,10.14a18.15,18.15,0,0,0,13.921,7A18.18,18.18,0,0,0,31.007-.24L25.474-.369c.019.288.025.577.019.89" transform="translate(5.324 19.195)" fill="#fff"/>
    </g>
    <g id="Сгруппировать_14" data-name="Сгруппировать 14" transform="translate(5209.731 2978.361)">
      <path id="Контур_14" data-name="Контур 14" d="M-.534-.6v-4.58h-4.1V29.368h4.1V5.966c.024-.148.042-.262.042-.262L-.47,5.67A10.5,10.5,0,0,1,6.6-1.288h6.9V-4.8H6.6A10.477,10.477,0,0,0-.534-.6" transform="translate(4.635 5.177)" fill="#fff"/>
    </g>
    <g id="Сгруппировать_15" data-name="Сгруппировать 15" transform="translate(5229.864 2977.379)">
      <path id="Контур_15" data-name="Контур 15" d="M-4.488,0A12.935,12.935,0,0,0-15.146,5.74,12.939,12.939,0,0,0-25.785,0c-7.272,0-13.163,6.237-13.163,13.918V35.494h4.17c-.028-.308-.042-.612-.042-.929V13.72a9.536,9.536,0,0,1,9.26-9.792A9.535,9.535,0,0,1-16.3,13.72V34.565c0,.317-.015.621-.042.929h3.732V13.918c0-.162-.012-.324-.012-.486V13.4c-.021-.434-.063-.86-.113-1.282a15.9,15.9,0,0,1,.518-3.4A9.153,9.153,0,0,1-4.276,3.928,9.537,9.537,0,0,1,4.98,13.72V34.565c0,.317-.019.621-.043.929H8.666V13.918C8.666,6.237,2.768,0-4.488,0" transform="translate(38.948 0)" fill="#fff"/>
    </g>
    <g id="Сгруппировать_16" data-name="Сгруппировать 16" transform="translate(5282.724 2976.912)">
      <path id="Контур_16" data-name="Контур 16" d="M-2.342-4.141A13.822,13.822,0,0,1-16.174-17.964,13.83,13.83,0,0,1-2.342-31.794a13.821,13.821,0,0,1,13.823,13.83A13.812,13.812,0,0,1-2.342-4.141m0-31.8a17.975,17.975,0,0,0-17.985,17.97A17.983,17.983,0,0,0-2.342.018a17.983,17.983,0,0,0,17.978-17.99A17.975,17.975,0,0,0-2.342-35.942" transform="translate(20.327 35.942)" fill="#fff"/>
    </g>
    <g id="Сгруппировать_896" data-name="Сгруппировать 896" transform="translate(5324.003 2960.19)">
      <g id="Сгруппировать_17" data-name="Сгруппировать 17" transform="translate(0)">
        <path id="Контур_17" data-name="Контур 17" d="M-2.405-4.046a12.613,12.613,0,0,1-12.6-12.6A12.616,12.616,0,0,1-2.405-29.25,12.611,12.611,0,0,1,10.179-16.644,12.608,12.608,0,0,1-2.405-4.046m0-31.064A18.483,18.483,0,0,0-20.876-16.644V17.347h6.528V-2.562A18.563,18.563,0,0,0-2.405,1.817,18.483,18.483,0,0,0,16.05-16.644,18.481,18.481,0,0,0-2.405-35.11" transform="translate(20.876 35.11)" fill="#fff"/>
      </g>
      <g id="Сгруппировать_18" data-name="Сгруппировать 18" transform="translate(98.504 14.309)">
        <path id="Контур_18" data-name="Контур 18" d="M-2.492-4.137A12.638,12.638,0,0,1-15.116-16.762,12.644,12.644,0,0,1-2.492-29.4,12.644,12.644,0,0,1,10.134-16.762,12.638,12.638,0,0,1-2.492-4.137m0-31.769A19.161,19.161,0,0,0-21.631-16.769,19.165,19.165,0,0,0-2.492,2.376,19.167,19.167,0,0,0,16.653-16.769,19.163,19.163,0,0,0-2.492-35.906" transform="translate(21.631 35.906)" fill="#fff"/>
      </g>
      <g id="Сгруппировать_19" data-name="Сгруппировать 19" transform="translate(58.699 14.336)">
        <path id="Контур_19" data-name="Контур 19" d="M-3.8-2.838a12.432,12.432,0,0,1-6.822,8.947,10.724,10.724,0,0,1-4.524,1A11.636,11.636,0,0,1-25.824-.531c-2.543-6.438.215-13.895,6.141-16.616A10.919,10.919,0,0,1-9.4-16.493l1.02.634,3.253-5.5-.962-.614a16.876,16.876,0,0,0-16.085-1.13c-9.008,4.14-13.22,15.384-9.386,25.063A17.827,17.827,0,0,0-15.135,13.626a16.623,16.623,0,0,0,7.013-1.553A18.878,18.878,0,0,0,2.421-2.431L2.633-3.79H-3.61Z" transform="translate(32.977 24.63)" fill="#fff"/>
      </g>
      <path id="Контур_20" data-name="Контур 20" d="M55.77-105.274h6.272V-130.4H55.77Z" transform="translate(-12.787 157.731)" fill="#fff"/>
      <g id="Сгруппировать_20" data-name="Сгруппировать 20" transform="translate(41.729 14.267)">
        <path id="Контур_21" data-name="Контур 21" d="M-.535,0A4.114,4.114,0,0,0-4.641,4.111,4.114,4.114,0,0,0-.535,8.218,4.113,4.113,0,0,0,3.572,4.111,4.113,4.113,0,0,0-.535,0" transform="translate(4.641)" fill="#fff"/>
      </g>
    </g>
  </g>
</svg>
