<svg xmlns="http://www.w3.org/2000/svg" width="354.697" height="51.638" viewBox="0 0 354.697 51.638">
  <g id="Сгруппировать_6829" data-name="Сгруппировать 6829" transform="translate(-36.847 -234.178)">
    <rect id="Прямоугольник_1344" data-name="Прямоугольник 1344" width="183.436" height="0.9" transform="translate(36.847 235.446)" fill="#fff"/>
    <path id="Контур_4176" data-name="Контур 4176" d="M0,0H88.677V.462H0Z" transform="translate(264.967 235.943)" fill="#fff" stroke="#fff" stroke-width="0.3"/>
    <g id="Сгруппировать_4252" data-name="Сгруппировать 4252" transform="translate(358.445 234.178)">
      <path id="Контур_4161" data-name="Контур 4161" d="M738.088,236.525a2.346,2.346,0,1,1-2.346-2.347A2.347,2.347,0,0,1,738.088,236.525Z" transform="translate(-733.396 -234.178)" fill="#fff"/>
      <path id="Контур_4162" data-name="Контур 4162" d="M760.548,236.525a2.346,2.346,0,1,1-2.346-2.347A2.347,2.347,0,0,1,760.548,236.525Z" transform="translate(-745.482 -234.178)" fill="#fff"/>
      <path id="Контур_4163" data-name="Контур 4163" d="M781.509,236.525a2.346,2.346,0,1,1-2.346-2.347A2.347,2.347,0,0,1,781.509,236.525Z" transform="translate(-756.762 -234.178)" fill="#fff"/>
    </g>
    <path id="Контур_4164" data-name="Контур 4164" d="M56.451,260.046c7,0,12,1.32,15.355,4.59a16.077,16.077,0,0,1,4.592,11.71c0,6.459-2.5,11.395-6.659,14.552-4.1,3.156-9.327,4.477-15.985,4.477h-12.8V293.71c4.792-.316,5.222-.574,5.222-5.166V266.877c0-4.592-.43-4.765-4.677-5.138v-1.693ZM50.4,288.086c0,4.1,1.807,5.165,5.969,5.165,10.59,0,15.24-7.691,15.24-16.216,0-5.424-2.152-10.387-6.715-13a18.377,18.377,0,0,0-9.213-2.009c-2.583,0-4.018.259-4.534.688-.546.431-.746.948-.746,3.044Z" transform="translate(-2.319 -13.921)" fill="#fff"/>
    <path id="Контур_4165" data-name="Контур 4165" d="M153.907,286.737c-.259,1.665-1.379,6.973-1.865,8.639h-26.2V293.71c4.994-.373,5.481-.775,5.481-5.223V266.962c0-4.733-.488-4.878-4.792-5.251v-1.665H150.72c.057,1.235.258,5.022.46,7.979l-1.751.23a12.879,12.879,0,0,0-1.693-4.678c-.66-1.176-2.038-1.55-5.912-1.55h-4.65c-1.665,0-1.751.144-1.751,1.693v12.254h5.368c4.907,0,5.137-.488,5.769-4.1h1.749v10.39H146.56c-.747-3.874-1.005-4.1-5.769-4.1h-5.368v10.072c0,2.555.431,3.787,1.378,4.477,1.062.688,2.927.688,5.768.688,4.105,0,5.683-.429,6.859-1.808a13.384,13.384,0,0,0,2.669-5.052Z" transform="translate(-47.999 -13.921)" fill="#fff"/>
    <path id="Контур_4166" data-name="Контур 4166" d="M209.577,281.924c-.947-1.493-1.388-1.9-4.4-1.9h-1.921v8.468c0,4.59.458,4.906,4.907,5.194v1.694H194.069v-1.694c4.592-.288,5.08-.546,5.08-5.194V266.819c0-4.649-.487-4.735-4.792-5.108v-1.665h13.316c3.731,0,6.457.488,8.408,1.75a8.162,8.162,0,0,1,3.731,7.091c0,4.734-2.811,7.69-6.915,9.5m-6.775-.23c2.872,0,4.592-.517,5.97-1.637a7.811,7.811,0,0,0,3.1-6.715c0-5.826-4.047-7.835-8.379-7.835a5.787,5.787,0,0,0-2.929.487c-.487.373-.63,2.5-.63,2.5v13.2Z" transform="translate(-84.717 -13.921)" fill="#fff"/>
    <path id="Контур_4167" data-name="Контур 4167" d="M382.041,258.182c8.954,0,17.392,7.09,17.392,18.079,0,11.826-8.207,18.971-18.138,18.971-9.414,0-17.419-7.519-17.419-18.079,0-9.9,6.945-18.972,18.139-18.972Zm-1.319,2.153c-5.913,0-11.71,4.879-11.71,15.239,0,10.219,5.854,17.508,13.517,17.508,6.143,0,11.739-4.879,11.739-15.384,0-11.508-6.343-17.362-13.489-17.362Z" transform="translate(-176.097 -12.918)" fill="#fff"/>
    <path id="Контур_4168" data-name="Контур 4168" d="M476.112,259.283c6.462,1.132,11.718,4.052,11.718,11.025,0,4.673-2.482,8.287-6.681,10.587-3.614,1.972-8.031,2.774-13.435,2.774H452.747v-2.154c6.17-.439,6.5-.767,6.5-6.462V247.272c0-5.623-.292-5.951-5.987-6.425v-2.118h17.56c5.221,0,8.068.8,10.259,2.3a9.736,9.736,0,0,1,3.8,7.995c0,6.461-5.439,9.163-8.761,10.186Zm-7.923-.84c7.52,0,10.916-2.958,10.916-8.725,0-4.417-2.591-8.689-9.638-8.689a9.83,9.83,0,0,0-4.051.693c-.693.475-.95,1.132-.95,3.432v13.289Zm-3.724,16.538c0,4.966,1.2,6.169,5.878,6.169,6.061-.073,11.207-2.774,11.207-10.075,0-7.192-5.146-10.039-13.435-10.039h-3.65Z" transform="translate(-223.922 -2.449)" fill="#fff"/>
    <path id="Контур_4169" data-name="Контур 4169" d="M561.575,286.737c-.257,1.665-1.378,6.973-1.866,8.639h-26.2V293.71c4.993-.373,5.481-.775,5.481-5.223V266.962c0-4.733-.488-4.878-4.791-5.251v-1.665h24.191c.058,1.235.259,5.022.461,7.979l-1.751.23a12.878,12.878,0,0,0-1.694-4.678c-.661-1.176-2.037-1.55-5.911-1.55h-4.649c-1.666,0-1.751.144-1.751,1.693v12.254h5.366c4.908,0,5.137-.488,5.769-4.1h1.75v10.39h-1.75c-.746-3.874-1.005-4.1-5.769-4.1h-5.366v10.072c0,2.555.431,3.787,1.377,4.477,1.062.688,2.928.688,5.768.688,4.106,0,5.684-.429,6.861-1.808a13.39,13.39,0,0,0,2.669-5.052Z" transform="translate(-267.382 -13.921)" fill="#fff"/>
    <path id="Контур_4170" data-name="Контур 4170" d="M628.293,286.851c-.315,1.636-1.492,6.859-1.951,8.524h-24.48v-1.694c4.534-.288,5.021-.6,5.021-5.194v-21.61c0-4.535-.372-4.793-4.965-5.166v-1.665h14.063v1.665c-4.419.315-4.993.575-4.993,5.166v21.237c0,2.956.315,3.96,1.319,4.592,1.063.6,2.985.688,5.4.688,2.985,0,4.793-.258,6.027-1.577a14.632,14.632,0,0,0,2.813-5.224Z" transform="translate(-304.167 -13.921)" fill="#fff"/>
    <path id="Контур_4171" data-name="Контур 4171" d="M692.112,286.851c-.315,1.636-1.491,6.859-1.95,8.524h-24.48v-1.694c4.533-.288,5.023-.6,5.023-5.194v-21.61c0-4.535-.374-4.793-4.965-5.166v-1.665H679.8v1.665c-4.419.315-4.994.575-4.994,5.166v21.237c0,2.956.316,3.96,1.32,4.592,1.061.6,2.986.688,5.4.688,2.984,0,4.794-.258,6.028-1.577a14.638,14.638,0,0,0,2.811-5.224Z" transform="translate(-338.511 -13.921)" fill="#fff"/>
    <path id="Контур_4172" data-name="Контур 4172" d="M750.7,294.372v-1.694c3.672-.431,4.1-.8,3.415-2.9l-2.984-8.21H739.2c-.8,2.21-1.493,4.42-2.3,6.659-1.233,3.645-.689,4.075,3.416,4.448v1.694h-12v-1.694c3.5-.488,4.248-.747,6.172-5.654l11.136-28.3,1.663-.545c3.3,9.069,7.148,19.947,10.533,29.159,1.551,4.535,2.355,4.993,5.941,5.338v1.694Zm-5.281-29.532h-.115c-1.751,4.794-3.471,9.615-5.165,14.235h10.189Z" transform="translate(-372.217 -12.918)" fill="#fff"/>
    <path id="Контур_4173" data-name="Контур 4173" d="M229.866,299.756s8.117,22.107,33.978,19.548c0,0-22.481,8.949-35.67-13.035L225.6,302Z" transform="translate(-101.686 -35.29)" fill="#fff"/>
    <g id="Сгруппировать_4253" data-name="Сгруппировать 4253" transform="translate(141.651 246.125)">
      <path id="Контур_4174" data-name="Контур 4174" d="M270.4,290.3c.132-1.761.6-4.056,1.159-9.8l1.033-11.3c.46-6.915.316-7.03-4.706-7.49v-1.665h8.7l11.427,27.509L300.4,260.046h10.647v1.665c-4.849.459-5.28.4-5.051,6.314l.489,18.97c.144,6.025.373,6.314,5.166,6.687v1.694H297.563v-1.694c4.535-.373,4.65-.661,4.65-6.687l-.258-22.042h-.115L290.3,290.611l-4.874.012-10.392-24.864h-.114l-.746,15.7c-.259,4.709-.343,6.929-.371,8.922" transform="translate(-266.092 -260.046)" fill="#fff"/>
      <path id="Контур_4175" data-name="Контур 4175" d="M268.734,311.125c-.405,2.483-1.5,3.012-4.734,3.331v1.319h12.932v-1.319c-3.233-.319-4.892-.732-5.066-3.331-.034-1.157.043-2.74.1-4.125h-2.592A34.9,34.9,0,0,1,268.734,311.125Z" transform="translate(-264 -285.314)" fill="#fff"/>
    </g>
  </g>
</svg>
