<svg xmlns="http://www.w3.org/2000/svg" width="279.682" height="31" viewBox="0 0 279.682 31">
  <g id="Сгруппировать_1406" data-name="Сгруппировать 1406" transform="translate(-0.438 0.208)">
    <g id="Сгруппировать_1404" data-name="Сгруппировать 1404" transform="translate(127.651 4.454)">
      <path id="Контур_632" data-name="Контур 632" d="M34.494,40.677H21.985a10.77,10.77,0,0,1-8.009-3.217,11.1,11.1,0,0,1-3.168-8.123,10.363,10.363,0,0,1,3.135-7.863,11.178,11.178,0,0,1,8.041-2.99h12.51v3.867H21.985a7.036,7.036,0,0,0-7.31,7.311,6.838,6.838,0,0,0,2.063,5.166,7.264,7.264,0,0,0,5.247,1.983h12.51Z" transform="translate(-10.808 -18.485)" fill="#6d6f71"/>
      <path id="Контур_633" data-name="Контур 633" d="M165.307,18.485v9.1H149.538v-9.1h-3.866V40.678h3.866V31.45h15.769v9.228h3.867V18.485Z" transform="translate(-119.023 -18.485)" fill="#6d6f71"/>
      <path id="Контур_634" data-name="Контур 634" d="M307,29.338a11.14,11.14,0,0,1-3.151,8.123,10.763,10.763,0,0,1-8.026,3.217h-6.206a10.768,10.768,0,0,1-8.008-3.217,11.1,11.1,0,0,1-3.169-8.123,10.363,10.363,0,0,1,3.136-7.863,11.178,11.178,0,0,1,8.041-2.989h6.206a11.164,11.164,0,0,1,8.057,2.989A10.387,10.387,0,0,1,307,29.338m-3.834.325A7.1,7.1,0,0,0,301.1,24.4a7.185,7.185,0,0,0-5.281-2.047h-6.206a7.036,7.036,0,0,0-7.311,7.311,6.836,6.836,0,0,0,2.064,5.166,7.263,7.263,0,0,0,5.247,1.982h6.206a7.312,7.312,0,0,0,5.281-1.982,6.843,6.843,0,0,0,2.062-5.166" transform="translate(-225.553 -18.485)" fill="#6d6f71"/>
      <rect id="Прямоугольник_2" data-name="Прямоугольник 2" width="3.866" height="22.192" transform="translate(121.619 0)" fill="#6d6f71"/>
      <path id="Контур_635" data-name="Контур 635" d="M684.869,33.822a6.342,6.342,0,0,1-2.241,5.068,8.094,8.094,0,0,1-5.361,1.788H660.851V36.81h16.416a5.182,5.182,0,0,0,2.761-.715,2.71,2.71,0,0,0,1.332-2.372,2.549,2.549,0,0,0-1.365-2.307,5.206,5.206,0,0,0-2.728-.682h-9.458a7.4,7.4,0,0,1-4.841-1.592,5.618,5.618,0,0,1-2.079-4.549,5.583,5.583,0,0,1,2.079-4.516,7.406,7.406,0,0,1,4.841-1.593h16.5v3.867h-16.5a2.934,2.934,0,0,0-1.883.618,2,2,0,0,0-.781,1.657,1.946,1.946,0,0,0,.781,1.657,3.042,3.042,0,0,0,1.883.585h9.458a7.913,7.913,0,0,1,5.361,1.852,6.438,6.438,0,0,1,2.241,5.1" transform="translate(-532.401 -18.485)" fill="#6d6f71"/>
      <path id="Контур_636" data-name="Контур 636" d="M475.823,18.484h4.909l8.676,15.893,8.772-15.893h4.972l-11.438,20.05q-1.2,2.143-2.4,2.143t-2.4-2.143l-3.12-5.6-.023.041.018-.046Z" transform="translate(-383.935 -18.484)" fill="#6d6f71"/>
      <path id="Контур_637" data-name="Контур 637" d="M417.015,18.484h4.908L430.6,34.377l2.613-4.8,1.137,2.065-.017.046.022-.041,1.2,2.145-2.646,4.738q-1.2,2.143-2.4,2.143t-2.4-2.143l-3.12-5.6-.023.041.017-.046Z" transform="translate(-336.747 -18.484)" fill="#6d6f71"/>
    </g>
    <text id="Powered_by" data-name="Powered by" transform="translate(0.438 24.792)" fill="#707070" font-size="23" font-family="SegoeUI, Segoe UI"><tspan x="0" y="0">Powered by</tspan></text>
  </g>
</svg>
